<?xml version="1.0" encoding="utf-8"?>
<!-- Generator: Adobe Illustrator 16.0.0, SVG Export Plug-In . SVG Version: 6.00 Build 0)  -->
<!DOCTYPE svg PUBLIC "-//W3C//DTD SVG 1.1//EN" "http://www.w3.org/Graphics/SVG/1.1/DTD/svg11.dtd">
<svg version="1.1" id="Layer_1" xmlns="http://www.w3.org/2000/svg" xmlns:xlink="http://www.w3.org/1999/xlink" x="0px" y="0px"
	 width="484.333px" height="162.667px" viewBox="0 0 484.333 162.667" enable-background="new 0 0 484.333 162.667"
	 xml:space="preserve">
<rect x="-55" y="-16.667" fill-rule="evenodd" clip-rule="evenodd" fill="none" width="324" height="130"/>
<g>
	<path fill="#483D8B" d="M4.564,92.55c-1.174-2.798-1.76-5.813-1.76-9.044c0-3.231,0.586-6.248,1.76-9.052
		c1.173-2.804,2.772-5.196,4.797-7.18s4.459-3.54,7.305-4.672c2.845-1.132,5.877-1.697,9.096-1.697c2.928,0,5.665,0.462,8.208,1.386
		c2.544,0.925,4.756,2.207,6.635,3.848s3.421,3.629,4.626,5.965c1.204,2.337,1.973,4.896,2.305,7.68H36.479
		c-0.623-2.751-1.869-4.913-3.738-6.487c-1.869-1.573-4.216-2.36-7.041-2.36c-3.51,0-6.386,1.188-8.629,3.565
		c-2.243,2.376-3.364,5.378-3.364,9.005c0,3.628,1.121,6.624,3.364,8.989c2.243,2.366,5.119,3.549,8.629,3.549
		c2.824,0,5.171-0.789,7.041-2.368s3.115-3.749,3.738-6.51h11.059c-0.665,5.649-2.986,10.213-6.962,13.691
		c-3.978,3.479-8.915,5.218-14.813,5.218c-3.219,0-6.251-0.565-9.096-1.694c-2.846-1.13-5.28-2.685-7.305-4.664
		S5.737,95.349,4.564,92.55z"/>
	<path fill="#483D8B" d="M53.831,105.172V74.239h10.312v3.302c2.949-2.555,6.5-3.832,10.654-3.832v9.845
		c-4.631,0.166-8.183,1.484-10.654,3.956v17.663H53.831z"/>
	<path fill="#483D8B" d="M77.6,89.674c0-3.014,0.696-5.764,2.087-8.248c1.391-2.484,3.26-4.422,5.607-5.815
		c2.347-1.393,4.901-2.089,7.663-2.089c3.178,0,6.013,0.789,8.505,2.367v-1.65h10.311v30.934h-10.311v-1.707
		c-2.451,1.554-5.286,2.33-8.505,2.33c-2.056,0-4.029-0.415-5.918-1.244c-1.89-0.83-3.526-1.951-4.907-3.362
		c-1.381-1.41-2.482-3.122-3.302-5.135S77.6,91.916,77.6,89.674z M89.812,84.197c-1.392,1.487-2.087,3.313-2.087,5.478
		s0.696,3.985,2.087,5.463c1.391,1.478,3.125,2.216,5.202,2.216c2.679,0,4.829-0.957,6.449-2.872v-9.583
		c-1.662-1.955-3.812-2.934-6.449-2.934C92.937,81.964,91.203,82.708,89.812,84.197z"/>
	<path fill="#483D8B" d="M118.783,105.172V74.239h10.312v2.087c2.575-2.035,5.431-3.053,8.567-3.053
		c3.938,0,7.109,1.282,9.511,3.847c2.402,2.565,3.604,6.028,3.604,10.39v17.663h-10.311V89.161c0-2.14-0.499-3.759-1.496-4.86
		c-0.997-1.101-2.367-1.65-4.112-1.65c-2.056,0-3.978,1.038-5.763,3.114v19.408H118.783z"/>
	<path fill="#483D8B" d="M157.442,105.172V59.877h10.312v25.949l10.81-11.588h12.305l-11.744,12.616l12.772,18.317h-12.398
		l-7.383-10.716l-4.361,4.642v6.074H157.442z"/>
</g>
<g>
	<path d="M271.695,96.534c-0.806-1.923-1.209-3.994-1.209-6.214s0.403-4.292,1.209-6.219c0.806-1.926,1.905-3.569,3.296-4.932
		s3.063-2.433,5.019-3.21c1.955-0.777,4.038-1.166,6.249-1.166c2.012,0,3.892,0.317,5.64,0.952c1.748,0.635,3.267,1.516,4.559,2.643
		c1.291,1.128,2.35,2.494,3.178,4.099c0.828,1.605,1.355,3.364,1.584,5.275h-7.598c-0.428-1.89-1.284-3.375-2.568-4.456
		c-1.284-1.081-2.896-1.622-4.836-1.622c-2.412,0-4.387,0.817-5.928,2.449c-1.541,1.633-2.312,3.695-2.312,6.187
		c0,2.492,0.771,4.551,2.312,6.176c1.541,1.626,3.517,2.438,5.928,2.438c1.94,0,3.553-0.543,4.836-1.627
		c1.284-1.085,2.14-2.576,2.568-4.473h7.598c-0.457,3.881-2.051,7.017-4.783,9.406c-2.732,2.39-6.125,3.585-10.177,3.585
		c-2.211,0-4.294-0.389-6.249-1.164c-1.955-0.776-3.627-1.845-5.019-3.205C273.6,100.097,272.501,98.456,271.695,96.534z"/>
	<path d="M305.542,105.205V83.953h7.084v2.269c2.025-1.755,4.465-2.632,7.319-2.632v6.763c-3.182,0.114-5.621,1.021-7.319,2.718
		v12.135H305.542z"/>
	<path d="M321.871,94.546c0-3.253,1.042-5.913,3.125-7.982c2.083-2.068,4.808-3.104,8.175-3.104c2.055,0,3.906,0.439,5.554,1.316
		c1.648,0.878,2.946,2.13,3.896,3.756c0.948,1.627,1.423,3.488,1.423,5.586c0,1.07-0.043,1.869-0.128,2.396l0.043,0.15h-15.174
		c0.313,1.021,0.866,1.84,1.658,2.456c0.792,0.617,1.83,0.925,3.114,0.925c1.512,0,2.597-0.499,3.253-1.498h7.02
		c-0.5,2.184-1.69,3.921-3.574,5.212c-1.883,1.291-4.145,1.937-6.784,1.937c-3.467,0-6.268-1.041-8.399-3.125
		C322.937,100.489,321.871,97.814,321.871,94.546z M328.698,92.492h8.689c-0.186-1.1-0.649-1.938-1.392-2.516
		s-1.684-0.865-2.825-0.865c-1.184,0-2.158,0.302-2.921,0.906C329.486,90.622,328.968,91.447,328.698,92.492z"/>
	<path d="M346.975,94.557c0-2.07,0.479-3.959,1.435-5.666c0.955-1.706,2.239-3.038,3.852-3.995s3.367-1.436,5.265-1.436
		c2.184,0,4.131,0.543,5.843,1.627v-1.135h7.084v21.252h-7.084v-1.173c-1.684,1.067-3.631,1.601-5.843,1.601
		c-1.412,0-2.768-0.285-4.066-0.854c-1.298-0.57-2.422-1.34-3.37-2.31c-0.949-0.969-1.705-2.146-2.269-3.528
		C347.257,97.558,346.975,96.097,346.975,94.557z M355.365,90.794c-0.956,1.021-1.434,2.276-1.434,3.764
		c0,1.486,0.478,2.737,1.434,3.752c0.956,1.016,2.147,1.522,3.574,1.522c1.84,0,3.317-0.657,4.43-1.973v-6.584
		c-1.142-1.343-2.618-2.016-4.43-2.016C357.512,89.26,356.321,89.772,355.365,90.794z"/>
	<path d="M373.128,90.031v-6.078h4.194v-7.233h7.084v7.233h7.255v6.078h-7.255v6.086c0,1.053,0.289,1.851,0.867,2.392
		c0.577,0.541,1.395,0.811,2.45,0.811c0.628,0,1.883-0.178,3.767-0.533l0.792,6.03c-1.312,0.415-2.433,0.694-3.36,0.838
		c-0.928,0.143-1.955,0.214-3.082,0.214c-2.563,0-4.623-0.87-6.181-2.61c-1.558-1.741-2.337-4.045-2.337-6.913v-6.313H373.128z"/>
	<path d="M395.364,76.633c0-1.155,0.404-2.118,1.213-2.889c0.808-0.771,1.799-1.156,2.972-1.156c1.152,0,2.131,0.386,2.935,1.156
		s1.206,1.733,1.206,2.889c0,1.128-0.405,2.073-1.217,2.836c-0.811,0.764-1.786,1.146-2.924,1.146c-1.173,0-2.164-0.382-2.972-1.146
		C395.768,78.707,395.364,77.761,395.364,76.633z M396.049,105.205V83.953h7.084v21.252H396.049z"/>
	<path d="M406.984,94.545c0-3.21,1.084-5.859,3.253-7.949c2.169-2.091,4.923-3.136,8.262-3.136s6.1,1.045,8.282,3.136
		c2.183,2.09,3.274,4.739,3.274,7.949c0,3.254-1.092,5.954-3.274,8.102s-4.943,3.221-8.282,3.221s-6.093-1.073-8.262-3.221
		S406.984,97.799,406.984,94.545z M413.725,94.588c0,1.475,0.45,2.709,1.349,3.706c0.899,0.997,2.055,1.495,3.467,1.495
		c1.398,0,2.543-0.498,3.436-1.495c0.892-0.997,1.337-2.231,1.337-3.706c0-1.43-0.445-2.629-1.337-3.598
		c-0.893-0.968-2.037-1.452-3.436-1.452c-1.412,0-2.567,0.484-3.467,1.452C414.175,91.959,413.725,93.159,413.725,94.588z"/>
	<path d="M433.543,105.205V83.953h7.084v1.435c1.77-1.398,3.731-2.098,5.886-2.098c2.706,0,4.884,0.881,6.534,2.644
		c1.65,1.762,2.476,4.141,2.476,7.137v12.135h-7.084v-11c0-1.47-0.342-2.583-1.027-3.339c-0.685-0.756-1.626-1.135-2.824-1.135
		c-1.413,0-2.732,0.714-3.96,2.141v13.333H433.543z"/>
	<path d="M458.648,97.885l6.313,0.037c0.143,0.771,0.57,1.347,1.284,1.727c0.713,0.38,1.641,0.569,2.782,0.569
		c0.941,0,1.684-0.131,2.226-0.394s0.813-0.615,0.813-1.058c0-0.746-0.692-1.223-2.076-1.431l-4.28-0.725
		c-1.926-0.318-3.445-0.995-4.559-2.031c-1.112-1.036-1.669-2.425-1.669-4.166c0-2.191,0.859-3.912,2.579-5.163
		c1.719-1.251,4.013-1.876,6.88-1.876c1.213,0,2.361,0.125,3.446,0.374c1.084,0.25,2.114,0.646,3.092,1.188
		c0.978,0.543,1.773,1.31,2.387,2.301c0.613,0.992,0.956,2.158,1.027,3.499h-6.313c-0.058-0.784-0.414-1.373-1.07-1.766
		c-0.656-0.392-1.498-0.588-2.525-0.588c-0.885,0-1.552,0.139-2.001,0.414c-0.449,0.276-0.674,0.629-0.674,1.058
		c0,0.829,0.734,1.368,2.204,1.616l3.98,0.643c4.409,0.802,6.613,2.881,6.613,6.239c0,1.655-0.449,3.057-1.349,4.205
		c-0.898,1.148-2.079,1.986-3.542,2.516c-1.462,0.529-3.143,0.794-5.04,0.794c-1.427,0-2.739-0.153-3.938-0.46
		s-2.279-0.773-3.242-1.401s-1.737-1.463-2.322-2.504C459.09,100.46,458.748,99.255,458.648,97.885z"/>
</g>
<g>
	<g>
		<path fill="#483D8B" d="M225.667,89.236c-0.799-0.613-1.387-1.046-1.955-1.505c-3.319-2.68-5.188-6.163-5.088-10.419
			c0.172-7.345,7.083-12.692,13.382-11.938c0.783,0.095,1.588,0.014,2.621,0.014c1.964-5.262,3.909-10.45,5.82-15.649
			c0.107-0.292-0.063-0.687-0.104-1.02c-1.25-0.482-1.693,0.349-2.176,1.091c-0.677,1.042-1.348,2.088-1.937,3.001
			c-1.983-0.041-2.231-0.16-2.619-1.404c-0.242-0.777-0.294-1.615-0.564-2.379c-0.256-0.726-0.685-1.392-1.025-2.059
			c-1.695,0.144-3.19-0.075-4.809,0.827c-0.117,1.04-0.244,2.197-0.378,3.352c-0.108,0.93-0.398,1.769-1.385,2.092
			c-1.042,0.341-1.68-0.295-2.225-1.052c-0.476-0.662-0.902-1.363-1.403-2.004c-0.35-0.448-0.79-0.825-1.299-1.346
			c-1.484,0.69-2.867,1.334-4.424,2.059c0.196,0.937,0.347,1.705,0.52,2.469c0.179,0.793,0.504,1.576,0.544,2.374
			c0.079,1.61-1.263,2.43-2.705,1.698c-0.523-0.265-0.967-0.685-1.465-1.005c-0.731-0.47-1.479-0.913-2.228-1.374
			c-1.599,1.032-2.799,2.156-3.52,3.676c0.568,1.995,2.6,3.032,2.842,5.021c-0.916,1.559-1.261,1.762-2.815,1.523
			c-1.15-0.176-2.29-0.417-3.459-0.635c-1.085,1.571-1.799,3.045-1.905,4.927c1.065,0.66,2.069,1.265,3.055,1.898
			c0.987,0.636,1.786,1.377,1.253,2.761c-1.401,1.656-3.831,0.923-5.481,2.248c-0.222,1.595-0.376,3.179,0.341,4.888
			c1.228,0.2,2.461,0.391,3.691,0.606c1.226,0.215,2.06,0.807,2.019,2.263c-0.849,1.898-3.333,2.122-4.275,3.9
			c0.296,1.916,0.789,2.929,2.299,4.562c1.044-0.27,2.237-0.596,3.438-0.884c1.737-0.418,2.234-0.103,2.896,1.867
			c-0.861,1.427-1.765,2.925-2.6,4.311c1.244,2.123,2.143,2.935,3.973,3.579c1.027-0.752,2.111-1.644,3.291-2.384
			c1.452-0.909,2.939-0.063,2.892,1.65c-0.023,0.875-0.341,1.74-0.505,2.613c-0.134,0.715-0.401,1.472,0.463,2.029
			c1.064,0.137,1.294-0.679,1.58-1.447c1.265-3.404,2.543-6.803,3.802-10.21C224.575,92.374,225.075,90.911,225.667,89.236z"/>
		<path fill-rule="evenodd" clip-rule="evenodd" fill="#260D0F" d="M240.3,57.884c0.593-1.675,1.092-3.138,1.628-4.588
			c1.259-3.406,2.537-6.805,3.802-10.209c0.286-0.769,0.516-1.583,1.581-1.447c0.864,0.558,0.596,1.313,0.462,2.028
			c-0.164,0.874-0.482,1.74-0.505,2.614c-0.047,1.713,1.44,2.559,2.891,1.649c1.179-0.739,2.264-1.631,3.291-2.384
			c1.83,0.646,2.729,1.456,3.973,3.58c-0.835,1.386-1.74,2.884-2.6,4.311c0.662,1.97,1.159,2.285,2.896,1.868
			c1.202-0.289,2.394-0.615,3.439-0.885c1.511,1.634,2.002,2.647,2.299,4.562c-0.943,1.779-3.426,2.002-4.275,3.899
			c-0.042,1.456,0.792,2.049,2.018,2.264c1.229,0.216,2.464,0.406,3.691,0.605c0.717,1.709,0.562,3.294,0.341,4.889
			c-1.651,1.326-4.081,0.591-5.482,2.247c-0.533,1.384,0.266,2.126,1.253,2.762c0.985,0.634,1.99,1.238,3.055,1.898
			c-0.105,1.882-0.82,3.355-1.905,4.927c-1.17-0.218-2.309-0.46-3.46-0.636c-1.553-0.237-1.898-0.034-2.815,1.524
			c0.243,1.988,2.275,3.025,2.843,5.021c-0.721,1.52-1.921,2.644-3.52,3.675c-0.75-0.46-1.498-0.903-2.228-1.372
			c-0.499-0.321-0.941-0.74-1.464-1.006c-1.442-0.731-2.784,0.088-2.705,1.698c0.04,0.799,0.365,1.58,0.543,2.374
			c0.173,0.764,0.324,1.532,0.52,2.47c-1.557,0.724-2.94,1.367-4.424,2.059c-0.509-0.521-0.949-0.898-1.299-1.346
			c-0.501-0.643-0.927-1.343-1.403-2.005c-0.544-0.757-1.182-1.393-2.225-1.052c-0.987,0.323-1.277,1.161-1.385,2.092
			c-0.134,1.156-0.261,2.312-0.378,3.352c-1.619,0.902-3.114,0.684-4.809,0.827c-0.34-0.667-0.769-1.332-1.025-2.059
			c-0.27-0.764-0.322-1.602-0.564-2.378c-0.388-1.244-0.636-1.363-2.619-1.405c-0.588,0.912-1.259,1.959-1.937,3.001
			c-0.483,0.743-0.925,1.573-2.176,1.092c-0.04-0.334-0.21-0.729-0.103-1.02c1.911-5.199,3.856-10.389,5.821-15.649
			c1.032,0,1.837-0.081,2.62,0.013c6.3,0.756,13.21-4.592,13.382-11.938c0.099-4.256-1.769-7.74-5.088-10.42
			C241.688,58.93,241.099,58.497,240.3,57.884z"/>
		
			<path fill-rule="evenodd" clip-rule="evenodd" fill="#260D0F" stroke="#000000" stroke-width="2" stroke-linecap="round" stroke-linejoin="round" stroke-miterlimit="10" d="
			M247.058,45.168c-0.446,1.41-0.891,2.82-1.336,4.23"/>
	</g>
</g>
<g>
	<g>
		<path fill="#483D8B" d="M-28.456,384.051c-1.516-1.163-2.632-1.982-3.709-2.854c-6.298-5.085-9.844-11.697-9.656-19.773
			c0.326-13.936,13.44-24.084,25.394-22.653c1.486,0.182,3.013,0.026,4.973,0.026c3.727-9.985,7.418-19.829,11.045-29.695
			c0.203-0.556-0.12-1.305-0.196-1.935c-2.373-0.916-3.212,0.659-4.129,2.068c-1.285,1.979-2.558,3.962-3.675,5.696
			c-3.763-0.078-4.234-0.304-4.97-2.665c-0.458-1.475-0.558-3.064-1.07-4.514c-0.486-1.379-1.299-2.643-1.945-3.909
			c-3.216,0.272-6.053-0.143-9.125,1.57c-0.222,1.974-0.463,4.169-0.718,6.359c-0.205,1.765-0.755,3.358-2.629,3.97
			c-1.979,0.648-3.188-0.56-4.222-1.994c-0.903-1.256-1.711-2.587-2.662-3.803c-0.664-0.853-1.499-1.567-2.465-2.554
			c-2.816,1.309-5.441,2.532-8.395,3.907c0.372,1.775,0.659,3.235,0.986,4.685c0.34,1.505,0.957,2.991,1.032,4.503
			c0.149,3.058-2.397,4.61-5.132,3.225c-0.993-0.504-1.834-1.301-2.78-1.909c-1.387-0.889-2.806-1.73-4.227-2.605
			c-3.035,1.957-5.312,4.092-6.68,6.976c1.078,3.784,4.934,5.752,5.394,9.525c-1.738,2.958-2.393,3.343-5.342,2.891
			c-2.182-0.333-4.346-0.789-6.564-1.204c-2.06,2.983-3.415,5.778-3.616,9.351c2.021,1.253,3.927,2.398,5.797,3.603
			c1.874,1.205,3.389,2.613,2.377,5.237c-2.659,3.143-7.27,1.753-10.402,4.266c-0.421,3.028-0.714,6.034,0.647,9.277
			c2.329,0.378,4.671,0.741,7.004,1.149c2.326,0.407,3.909,1.53,3.831,4.295c-1.61,3.603-6.324,4.025-8.113,7.401
			c0.562,3.637,1.498,5.557,4.363,8.658c1.982-0.511,4.245-1.13,6.525-1.679c3.296-0.793,4.239-0.192,5.496,3.543
			c-1.634,2.71-3.35,5.553-4.934,8.181c2.36,4.028,4.066,5.57,7.539,6.793c1.95-1.427,4.007-3.12,6.245-4.525
			c2.755-1.724,5.577-0.118,5.487,3.132c-0.044,1.661-0.647,3.303-0.959,4.959c-0.255,1.356-0.762,2.795,0.878,3.852
			c2.019,0.259,2.456-1.286,2.999-2.747c2.4-6.46,4.826-12.909,7.215-19.373C-30.529,390.007-29.581,387.232-28.456,384.051z"/>
		<path fill-rule="evenodd" clip-rule="evenodd" fill="#260D0F" d="M-0.688,324.557c1.126-3.176,2.073-5.952,3.09-8.706
			c2.389-6.464,4.814-12.913,7.214-19.373c0.543-1.458,0.979-3.004,3-2.744c1.64,1.058,1.131,2.492,0.877,3.849
			c-0.311,1.659-0.915,3.303-0.958,4.961c-0.09,3.251,2.733,4.857,5.486,3.13c2.238-1.404,4.296-3.095,6.245-4.525
			c3.472,1.228,5.179,2.766,7.539,6.794c-1.584,2.632-3.302,5.475-4.933,8.18c1.256,3.74,2.199,4.337,5.495,3.547
			c2.28-0.548,4.543-1.167,6.526-1.679c2.867,3.099,3.8,5.022,4.362,8.658c-1.79,3.376-6.502,3.799-8.112,7.397
			c-0.08,2.766,1.504,3.889,3.83,4.296c2.333,0.411,4.675,0.771,7.005,1.149c1.36,3.242,1.067,6.252,0.647,9.276
			c-3.133,2.517-7.745,1.123-10.403,4.266c-1.012,2.625,0.505,4.033,2.377,5.241c1.87,1.201,3.776,2.35,5.797,3.603
			c-0.199,3.569-1.556,6.367-3.616,9.348c-2.22-0.412-4.382-0.871-6.565-1.205c-2.947-0.452-3.602-0.066-5.342,2.892
			c0.46,3.772,4.318,5.741,5.395,9.528c-1.369,2.884-3.646,5.015-6.679,6.972c-1.422-0.871-2.842-1.712-4.228-2.602
			c-0.946-0.611-1.787-1.404-2.779-1.909c-2.736-1.39-5.284,0.167-5.133,3.221c0.075,1.517,0.692,2.999,1.031,4.508
			c0.328,1.449,0.615,2.905,0.987,4.685c-2.954,1.375-5.579,2.595-8.395,3.906c-0.966-0.989-1.801-1.705-2.466-2.554
			c-0.951-1.22-1.758-2.546-2.662-3.803c-1.033-1.438-2.243-2.643-4.221-1.998c-1.874,0.615-2.424,2.206-2.629,3.97
			c-0.254,2.194-0.496,4.389-0.717,6.36c-3.072,1.712-5.91,1.297-9.125,1.571c-0.646-1.268-1.458-2.527-1.945-3.906
			c-0.511-1.449-0.611-3.039-1.07-4.515c-0.736-2.36-1.208-2.587-4.97-2.665c-1.117,1.731-2.39,3.718-3.675,5.693
			c-0.917,1.412-1.755,2.987-4.13,2.072c-0.075-0.634-0.399-1.383-0.196-1.936c3.627-9.866,7.318-19.714,11.046-29.694
			c1.959,0,3.486-0.156,4.972,0.021c11.955,1.435,25.068-8.713,25.394-22.652c0.187-8.076-3.357-14.688-9.656-19.773
			C1.944,326.544,0.827,325.721-0.688,324.557z"/>
		
			<path fill-rule="evenodd" clip-rule="evenodd" fill="#260D0F" stroke="#000000" stroke-width="2" stroke-linecap="round" stroke-linejoin="round" stroke-miterlimit="10" d="
			M12.136,300.427c-0.846,2.674-1.691,5.353-2.535,8.026"/>
	</g>
</g>
</svg>
